<?xml version="1.0" encoding="UTF-8"?>
<svg xmlns="http://www.w3.org/2000/svg" id="Outline" viewBox="0 0 512 512" width="512" height="512"><path d="M472,320H447.939c-.676-49.148-7.52-87.649-15.939-116.721V24a8,8,0,0,0-8-8H336a8,8,0,0,0-7.49,5.191L305.17,83.43c-11.9,10.237-39.3,12.556-49.165,12.57-9.879-.014-37.276-2.333-49.175-12.57L183.491,21.191A8,8,0,0,0,176,16H88a8,8,0,0,0-8,8V203.279C71.581,232.351,64.737,270.852,64.061,320H40a24.028,24.028,0,0,0-24,24V488a8,8,0,0,0,8,8H488a8,8,0,0,0,8-8V344A24.028,24.028,0,0,0,472,320ZM398.074,130.793A8,8,0,0,0,392,128h-6.556l5.333-32H392a8,8,0,0,0,7.155-4.422L416,57.888V160.56C406.74,141.151,398.874,131.727,398.074,130.793ZM374.556,96l-5.333,32H329.444l5.333-32ZM341.544,32h69.512l-24,48H323.544ZM232.685,109.891A156.71,156.71,0,0,0,256,112a156.71,156.71,0,0,0,23.315-2.109c15.787-2.631,27.778-7.3,35.742-13.891h3.5l-5.333,32H198.777l-5.333-32h3.5C204.906,102.589,216.9,107.26,232.685,109.891ZM142.777,128l-5.333-32h39.779l5.333,32Zm45.679-48H124.944l-24-48h69.512ZM96,57.888l16.845,33.69A8,8,0,0,0,120,96h1.223l5.333,32H120a8,8,0,0,0-6.074,2.793c-.8.934-8.666,10.358-17.926,29.767ZM32,368H80v16H32Zm0,64H80v16H32Zm0,32H88a8,8,0,0,0,8-8V424a8,8,0,0,0-8-8H32V400H88a8,8,0,0,0,8-8V360a8,8,0,0,0-8-8H32v-8a8.009,8.009,0,0,1,8-8h72V480H32Zm352,16H128V328a8.009,8.009,0,0,1,8-8H376a8.009,8.009,0,0,1,8,8Zm-8-176H136a24.039,24.039,0,0,0-22.624,16H80.065c.931-64.1,12.9-108.678,23.013-135.118,8.479-22.169,17.036-35.486,20.887-40.882H388.033c3.862,5.409,12.414,18.724,20.889,40.882C419.034,211.322,431,255.9,431.935,320H398.624A24.039,24.039,0,0,0,376,304Zm24,176V336h72a8.009,8.009,0,0,1,8,8v8H424a8,8,0,0,0-8,8v32a8,8,0,0,0,8,8h56v16H424a8,8,0,0,0-8,8v32a8,8,0,0,0,8,8h56v16Zm80-112v16H432V368Zm0,64v16H432V432Z"/><path d="M360,352H152a8,8,0,0,0-8,8v32a8,8,0,0,0,8,8H360a8,8,0,0,0,8-8V360A8,8,0,0,0,360,352Zm-8,32H160V368H352Z"/><path d="M360,416H152a8,8,0,0,0-8,8v32a8,8,0,0,0,8,8H360a8,8,0,0,0,8-8V424A8,8,0,0,0,360,416Zm-8,32H160V432H352Z"/><path d="M336,176H176a8,8,0,0,0-8,8v64a8,8,0,0,0,8,8H336a8,8,0,0,0,8-8V184A8,8,0,0,0,336,176Zm-8,64H184V192H328Z"/></svg>
