<?xml version="1.0" encoding="iso-8859-1"?>
<!-- Generator: Adobe Illustrator 19.0.0, SVG Export Plug-In . SVG Version: 6.00 Build 0)  -->
<svg version="1.1" id="Capa_1" xmlns="http://www.w3.org/2000/svg" xmlns:xlink="http://www.w3.org/1999/xlink" x="0px" y="0px"
	 viewBox="0 0 512.001 512.001" style="enable-background:new 0 0 512.001 512.001;" xml:space="preserve">
<g>
	<g>
		<path d="M492.956,240.121C479.16,156.426,443.27,78.736,370,36.684c-25.805-14.809-53.841-25.269-83.33-31.088
			c-4.063-0.807-8.009,1.843-8.812,5.906c-0.802,4.064,1.843,8.008,5.906,8.811c27.883,5.502,54.384,15.388,78.768,29.382
			c36.094,20.715,64.399,51.669,84.716,92.47h-44.803c-4.143,0-7.5,3.358-7.5,7.5s3.357,7.5,7.5,7.5h51.736
			c6.873,16.111,12.628,33.593,17.252,52.423c-50.377,0.736-129.942-0.813-202.08-13.888c-0.1-0.022-0.197-0.05-0.298-0.068
			c-17.15-3.112-35.031-7.104-51.895-12.058c-22.492-6.606-46.51,3.626-57.112,24.328l-0.373,0.727
			c-3.53,6.891-5.277,14.343-5.331,21.749c-0.152,21.058,10.864,32.326,27.044,47.199c16.388,15.132,39.293,33.236,69.776,51.042
			c0.018,0.01,0.036,0.021,0.054,0.031c1.365,0.797,2.745,1.594,4.141,2.39c0.045,0.026,0.09,0.051,0.135,0.077
			c1.383,0.788,2.78,1.575,4.193,2.36c0.041,0.023,0.083,0.046,0.124,0.069c1.426,0.792,2.867,1.584,4.324,2.374
			c0.002,0.001,0.004,0.002,0.006,0.003h0.001c2.685,1.455,5.412,2.907,8.203,4.35c59.22,30.627,128.21,50.936,205.179,60.431
			l-12.748,37.263c-0.242,0.708-0.617,1.348-1.115,1.905l-49.391,55.27c-1.687,1.887-4.436,2.396-6.688,1.235l-183.304-94.609
			C152.382,346.142,103.41,288.616,74.97,250.112c-26.249-35.535-40.308-61.827-44.051-69.153
			c5.67-33.491,15.781-56.089,20.646-65.542c2.885-5.606,3.052-12.118,0.457-17.864L40.306,71.611
			c-1.193-2.644-0.139-5.791,2.403-7.163c31.21-16.856,113.85-55.346,206.971-48.683c4.148,0.302,7.721-2.814,8.016-6.946
			c0.296-4.132-2.813-7.721-6.945-8.016C153.702-6.136,67.945,33.767,35.579,51.248c-9.436,5.096-13.364,16.753-8.945,26.537
			l11.716,25.943c0.701,1.552,0.656,3.311-0.124,4.826C8.888,165.557,6.492,241.923,19.874,304.608
			c1.302,6.102,5.199,11.23,10.696,14.066L400.703,509.71c8.342,4.306,18.518,2.409,24.754-4.569l49.389-55.269
			c1.84-2.058,3.228-4.427,4.124-7.044l16.637-48.634c0.454-1.329,0.771-2.702,0.944-4.08
			C498.076,377.948,505.058,313.547,492.956,240.121z M37.45,305.343c-1.486-0.767-2.545-2.176-2.905-3.866
			c-7.283-34.118-9.074-66.053-6.751-95.237c7.587,12.894,19.072,31.043,34.832,52.408c21.725,29.455,55.185,69.789,101.416,112.032
			L37.45,305.343z M481.921,386.136c-89.449-10.714-156.955-34.745-206.704-61.089v-51.546c0-4.142-3.357-7.5-7.5-7.5
			c-4.143,0-7.5,3.358-7.5,7.5v43.031c-29.029-16.805-58.114-38.134-81.596-62.656c-23.566-24.599,0.919-65.717,34.311-55.908
			c15.502,4.553,31.625,8.276,47.284,11.279v29.253c0,4.142,3.357,7.5,7.5,7.5s7.5-3.358,7.5-7.5v-26.561
			c72.601,12.183,150.716,13.421,199.57,12.6C485.912,278.087,487.187,340.07,481.921,386.136z"/>
	</g>
</g>
<g>
</g>
<g>
</g>
<g>
</g>
<g>
</g>
<g>
</g>
<g>
</g>
<g>
</g>
<g>
</g>
<g>
</g>
<g>
</g>
<g>
</g>
<g>
</g>
<g>
</g>
<g>
</g>
<g>
</g>
</svg>
