<svg xmlns="http://www.w3.org/2000/svg" xmlns:xlink="http://www.w3.org/1999/xlink" viewBox="0 0 209.61 107.2"><defs><style>.cls-1{isolation:isolate;}.cls-2{opacity:0.04;}.cls-3{fill:url(#linear-gradient);}.cls-4{fill:url(#linear-gradient-2);}.cls-5{fill:url(#linear-gradient-3);}.cls-6{fill:url(#linear-gradient-4);}.cls-7{fill:url(#linear-gradient-5);}.cls-8{opacity:0.06;}.cls-9{fill:url(#linear-gradient-6);}.cls-10{fill:url(#linear-gradient-7);}.cls-11{fill:url(#linear-gradient-8);}.cls-12{fill:url(#linear-gradient-9);}.cls-13{fill:url(#linear-gradient-10);}.cls-14{fill:url(#linear-gradient-11);}.cls-15{fill:url(#linear-gradient-12);}.cls-16{fill:url(#linear-gradient-13);}.cls-17{fill:url(#linear-gradient-14);}.cls-18{fill:url(#linear-gradient-15);}.cls-19{fill:#006eff;}.cls-20{fill:#fff;}.cls-21{fill:url(#linear-gradient-16);}.cls-22{fill:#231f20;opacity:0.1;mix-blend-mode:multiply;}.cls-23{fill:url(#linear-gradient-17);}.cls-24{fill:url(#linear-gradient-18);}.cls-25{fill:url(#linear-gradient-19);}.cls-26{fill:url(#linear-gradient-20);}.cls-27{fill:url(#linear-gradient-21);}.cls-28{fill:#3e387b;}.cls-29{fill:url(#linear-gradient-22);}.cls-30{fill:url(#linear-gradient-23);}</style><linearGradient id="linear-gradient" x1="19.75" y1="60.97" x2="192.81" y2="60.97" gradientUnits="userSpaceOnUse"><stop offset="0" stop-color="#00ffc6"/><stop offset="1" stop-color="#006eff"/></linearGradient><linearGradient id="linear-gradient-2" x1="44.23" y1="74.76" x2="168.33" y2="74.76" xlink:href="#linear-gradient"/><linearGradient id="linear-gradient-3" x1="162.68" y1="89.17" x2="172.41" y2="89.17" xlink:href="#linear-gradient"/><linearGradient id="linear-gradient-4" x1="118.55" y1="12.49" x2="133.54" y2="12.49" gradientTransform="translate(45.75 -85.47) rotate(45)" xlink:href="#linear-gradient"/><linearGradient id="linear-gradient-5" x1="51.19" y1="30.8" x2="57.61" y2="30.8" xlink:href="#linear-gradient"/><linearGradient id="linear-gradient-6" x1="152.3" y1="24.92" x2="158.72" y2="24.92" xlink:href="#linear-gradient"/><linearGradient id="linear-gradient-7" x1="81.51" y1="3.21" x2="87.93" y2="3.21" xlink:href="#linear-gradient"/><linearGradient id="linear-gradient-8" x1="193.51" y1="84.94" x2="196.15" y2="84.94" xlink:href="#linear-gradient"/><linearGradient id="linear-gradient-9" x1="54.39" y1="7.15" x2="56.96" y2="7.15" xlink:href="#linear-gradient"/><linearGradient id="linear-gradient-10" x1="0" y1="35.91" x2="3.43" y2="35.91" xlink:href="#linear-gradient"/><linearGradient id="linear-gradient-11" x1="206.18" y1="48.45" x2="209.61" y2="48.45" xlink:href="#linear-gradient"/><linearGradient id="linear-gradient-12" x1="21.97" y1="28.98" x2="36.49" y2="28.98" xlink:href="#linear-gradient"/><linearGradient id="linear-gradient-13" x1="6.14" y1="81.93" x2="9.56" y2="81.93" xlink:href="#linear-gradient"/><linearGradient id="linear-gradient-14" x1="184.68" y1="30.8" x2="198.76" y2="30.8" xlink:href="#linear-gradient"/><linearGradient id="linear-gradient-15" x1="0.93" y1="62.62" x2="14.77" y2="62.62" xlink:href="#linear-gradient"/><linearGradient id="linear-gradient-16" x1="76.68" y1="61.14" x2="133.91" y2="61.14" gradientUnits="userSpaceOnUse"><stop offset="0" stop-color="#7cd1ff"/><stop offset="0.99" stop-color="#0cc2ed"/></linearGradient><linearGradient id="linear-gradient-17" x1="132.69" y1="96.03" x2="141.34" y2="96.03" xlink:href="#linear-gradient-16"/><linearGradient id="linear-gradient-18" x1="133.62" y1="88.02" x2="140.41" y2="88.02" xlink:href="#linear-gradient-16"/><linearGradient id="linear-gradient-19" x1="69.25" y1="96.03" x2="77.9" y2="96.03" xlink:href="#linear-gradient-16"/><linearGradient id="linear-gradient-20" x1="70.18" y1="88.02" x2="76.97" y2="88.02" xlink:href="#linear-gradient-16"/><linearGradient id="linear-gradient-21" x1="81.37" y1="39.54" x2="129.23" y2="39.54" xlink:href="#linear-gradient-16"/><linearGradient id="linear-gradient-22" x1="90.16" y1="71.52" x2="99.23" y2="71.52" xlink:href="#linear-gradient-16"/><linearGradient id="linear-gradient-23" x1="111.36" y1="71.52" x2="120.44" y2="71.52" xlink:href="#linear-gradient-16"/></defs><title>Asset 1</title><g class="cls-1"><g id="Layer_2" data-name="Layer 2"><g id="Store"><g class="cls-2"><path class="cls-3" d="M192.81,105.78a85.17,85.17,0,0,0-7.35-34.71,26.93,26.93,0,0,0-24.26-38.6,27.13,27.13,0,0,0-8,1.2,85.08,85.08,0,0,0-45.81-13.31q-3.15,0-6.24.23a22,22,0,0,0-33.79,9.72A86,86,0,0,0,49.55,42.93a24.71,24.71,0,0,0-5.41-.61A24.39,24.39,0,0,0,25.28,82.17,85.56,85.56,0,0,0,22,105.78Z"/></g><g class="cls-2"><path class="cls-4" d="M168.33,105.78a62.05,62.05,0,0,0-124.1,0Z"/></g><g class="cls-2"><path class="cls-5" d="M172.41,89.17a4.87,4.87,0,1,1-4.87-4.86A4.86,4.86,0,0,1,172.41,89.17Z"/></g><g class="cls-2"><circle class="cls-6" cx="126.05" cy="12.49" r="7.49" transform="translate(28.08 92.79) rotate(-45)"/></g><g class="cls-2"><path class="cls-7" d="M57.61,30.8a3.21,3.21,0,1,1-3.21-3.21A3.21,3.21,0,0,1,57.61,30.8Z"/></g><g class="cls-8"><circle class="cls-9" cx="155.51" cy="24.92" r="3.21"/></g><g class="cls-2"><path class="cls-10" d="M87.93,3.21A3.21,3.21,0,1,1,84.72,0,3.21,3.21,0,0,1,87.93,3.21Z"/></g><g class="cls-2"><path class="cls-11" d="M196.15,84.94a1.32,1.32,0,1,1-1.32-1.31A1.32,1.32,0,0,1,196.15,84.94Z"/></g><g class="cls-2"><circle class="cls-12" cx="55.67" cy="7.15" r="1.29"/></g><g class="cls-2"><path class="cls-13" d="M3.43,35.91a1.72,1.72,0,1,1-1.72-1.72A1.72,1.72,0,0,1,3.43,35.91Z"/></g><g class="cls-2"><path class="cls-14" d="M209.61,48.45a1.72,1.72,0,1,1-1.72-1.71A1.72,1.72,0,0,1,209.61,48.45Z"/></g><g class="cls-2"><circle class="cls-15" cx="29.23" cy="28.98" r="7.26"/></g><g class="cls-2"><path class="cls-16" d="M9.56,81.93a1.71,1.71,0,1,1-1.71-1.71A1.71,1.71,0,0,1,9.56,81.93Z"/></g><g class="cls-2"><path class="cls-17" d="M198.76,30.8a7,7,0,1,1-7-7A7,7,0,0,1,198.76,30.8Z"/></g><g class="cls-2"><circle class="cls-18" cx="7.85" cy="62.62" r="6.92"/></g><path class="cls-19" d="M177.18,32.3H151.92a.75.75,0,0,1,0-1.5h25.26a.75.75,0,1,1,0,1.5Z"/><path class="cls-19" d="M149.28,32.3h-2.43a.75.75,0,0,1,0-1.5h2.43a.75.75,0,1,1,0,1.5Z"/><path class="cls-19" d="M142.86,32.3h-4.27a.75.75,0,0,1,0-1.5h4.27a.75.75,0,1,1,0,1.5Z"/><path class="cls-19" d="M140.73,34.44a.74.74,0,0,1-.75-.75V29.42a.75.75,0,1,1,1.5,0v4.27A.75.75,0,0,1,140.73,34.44Z"/><path class="cls-19" d="M103.62,15.7H99.35a.75.75,0,0,1,0-1.5h4.27a.75.75,0,0,1,0,1.5Z"/><path class="cls-19" d="M101.49,17.84a.75.75,0,0,1-.75-.75V12.82a.75.75,0,0,1,1.5,0v4.27A.76.76,0,0,1,101.49,17.84Z"/><path class="cls-19" d="M60.61,72.92H56.34a.75.75,0,1,1,0-1.5h4.27a.75.75,0,0,1,0,1.5Z"/><path class="cls-19" d="M58.48,75.06a.75.75,0,0,1-.75-.75V70a.75.75,0,0,1,1.5,0v4.28A.76.76,0,0,1,58.48,75.06Z"/><path class="cls-19" d="M43.94,79.07a.79.79,0,0,1-.53-.22l-3-3a.75.75,0,0,1,0-1.06.74.74,0,0,1,1.06,0l3,3a.74.74,0,0,1,0,1.06A.77.77,0,0,1,43.94,79.07Z"/><path class="cls-19" d="M40.92,79.07a.79.79,0,0,1-.53-.22.75.75,0,0,1,0-1.06l3-3a.75.75,0,0,1,1.06,1.06l-3,3A.79.79,0,0,1,40.92,79.07Z"/><path class="cls-19" d="M154,48a.79.79,0,0,1-.53-.22.75.75,0,0,1,0-1.06l3-3a.75.75,0,0,1,1.06,0,.74.74,0,0,1,0,1.06l-3,3A.79.79,0,0,1,154,48Z"/><path class="cls-19" d="M157,48a.79.79,0,0,1-.53-.22l-3-3a.75.75,0,0,1,1.06-1.06l3,3a.74.74,0,0,1,0,1.06A.77.77,0,0,1,157,48Z"/><path class="cls-19" d="M164.28,92.68a.74.74,0,0,1-.53-.21.75.75,0,0,1,0-1.07l3-3a.75.75,0,0,1,1.06,1.06l-3,3A.77.77,0,0,1,164.28,92.68Z"/><path class="cls-19" d="M167.3,92.68a.76.76,0,0,1-.53-.21l-3-3a.74.74,0,0,1,0-1.06.75.75,0,0,1,1.06,0l3,3a.77.77,0,0,1,0,1.07A.77.77,0,0,1,167.3,92.68Z"/><path class="cls-19" d="M72.63,41.48H29.75a.75.75,0,1,1,0-1.5H72.63a.75.75,0,0,1,0,1.5Z"/><path class="cls-19" d="M85.55,15.7h-30a.75.75,0,0,1,0-1.5h30a.75.75,0,0,1,0,1.5Z"/><path class="cls-19" d="M160.44,74h-9.86a.75.75,0,0,1,0-1.5h9.86a.75.75,0,0,1,0,1.5Z"/><path class="cls-19" d="M64.27,56.25h-21a.75.75,0,1,1,0-1.5h21a.75.75,0,0,1,0,1.5Z"/><path class="cls-19" d="M147.84,23.21H100.42a.75.75,0,0,1,0-1.5h47.42a.75.75,0,0,1,0,1.5Z"/><path class="cls-19" d="M95.68,15.7H90.87a.75.75,0,0,1,0-1.5h4.81a.75.75,0,0,1,0,1.5Z"/><polygon class="cls-19" points="167.54 20.62 169.44 19.52 171.34 20.62 171.34 22.81 169.44 23.91 167.54 22.81 167.54 20.62"/><polygon class="cls-19" points="175.28 55.8 176.41 55.15 177.54 55.8 177.54 57.1 176.41 57.75 175.28 57.1 175.28 55.8"/><polygon class="cls-19" points="41.3 25.02 42.43 24.37 43.56 25.02 43.56 26.32 42.43 26.98 41.3 26.32 41.3 25.02"/><polygon class="cls-19" points="58.48 89.74 60.38 88.65 62.27 89.74 62.27 91.94 60.38 93.03 58.48 91.94 58.48 89.74"/><polygon class="cls-19" points="117.18 1.49 119.74 0.01 122.3 1.49 122.3 4.45 119.74 5.93 117.18 4.45 117.18 1.49"/><path class="cls-19" d="M199.84,107.16H15.67a.75.75,0,0,1,0-1.5H199.84a.75.75,0,0,1,0,1.5Z"/><path class="cls-19" d="M205.28,107.16h-2.72a.75.75,0,0,1,0-1.5h2.72a.75.75,0,0,1,0,1.5Z"/><path class="cls-19" d="M13,107.16H8.35a.75.75,0,1,1,0-1.5H13a.75.75,0,1,1,0,1.5Z"/><rect class="cls-20" x="81.37" y="64.43" width="47.86" height="41.9"/><path class="cls-20" d="M89.39,64.43V73.1a5.3,5.3,0,0,1-5.3,5.3h0a5.21,5.21,0,0,1-2.72-.75,5.28,5.28,0,0,1-2.58-4.55V64.43Z"/><path class="cls-20" d="M100,64.43H89.39V73.1a5.3,5.3,0,0,0,5.3,5.3h0A5.3,5.3,0,0,0,100,73.1Z"/><path class="cls-20" d="M110.6,64.43H100V73.1a5.3,5.3,0,0,0,5.3,5.3h0a5.3,5.3,0,0,0,5.3-5.3Z"/><path class="cls-20" d="M121.2,64.43H110.6V73.1a5.3,5.3,0,0,0,5.3,5.3h0a5.3,5.3,0,0,0,5.3-5.3Z"/><path class="cls-20" d="M131.81,64.43V73.1a5.3,5.3,0,0,1-1.56,3.75,5.25,5.25,0,0,1-3.74,1.55,5.31,5.31,0,0,1-5.31-5.3V64.43Z"/><rect class="cls-21" x="76.68" y="57.89" width="57.23" height="6.51"/><rect class="cls-22" x="76.68" y="57.89" width="57.23" height="3.79"/><rect class="cls-20" x="81.37" y="51.38" width="47.86" height="6.51"/><rect class="cls-20" x="81.37" y="51.38" width="47.86" height="3.4"/><rect class="cls-20" x="78.79" y="98.62" width="15.91" height="7.71"/><rect class="cls-20" x="115.9" y="98.62" width="15.91" height="7.71"/><rect class="cls-20" x="94.69" y="81.48" width="21.21" height="24.85"/><path class="cls-23" d="M141.34,96A4.33,4.33,0,1,1,137,91.71,4.32,4.32,0,0,1,141.34,96Z"/><path class="cls-24" d="M133.62,88a3.4,3.4,0,1,1,3.4,3.4A3.4,3.4,0,0,1,133.62,88Z"/><path class="cls-25" d="M77.9,96a4.33,4.33,0,1,1-4.32-4.32A4.32,4.32,0,0,1,77.9,96Z"/><path class="cls-26" d="M70.18,88a3.4,3.4,0,1,1,3.4,3.4A3.4,3.4,0,0,1,70.18,88Z"/><polygon class="cls-27" points="123.9 46.62 86.69 46.62 81.37 32.46 129.23 32.46 123.9 46.62"/><path class="cls-28" d="M91.87,41l1.35-.14a1.61,1.61,0,0,0,.49,1,1.5,1.5,0,0,0,1,.32,1.54,1.54,0,0,0,1-.29.83.83,0,0,0,.34-.66.59.59,0,0,0-.15-.41,1.21,1.21,0,0,0-.49-.3c-.17,0-.53-.15-1.11-.29a3.82,3.82,0,0,1-1.56-.68,1.79,1.79,0,0,1-.63-1.38,1.76,1.76,0,0,1,.3-1,1.84,1.84,0,0,1,.85-.69,3.4,3.4,0,0,1,1.35-.24,2.88,2.88,0,0,1,1.94.57,2,2,0,0,1,.68,1.5l-1.38.07a1.17,1.17,0,0,0-.38-.76,1.38,1.38,0,0,0-.88-.23,1.61,1.61,0,0,0-.94.24.5.5,0,0,0-.22.43.51.51,0,0,0,.21.41,3.47,3.47,0,0,0,1.27.46,6.75,6.75,0,0,1,1.49.49,1.88,1.88,0,0,1,.75.7,2,2,0,0,1,.28,1.09,2,2,0,0,1-.33,1.1,2,2,0,0,1-.92.76,3.84,3.84,0,0,1-1.49.25,3,3,0,0,1-2-.6A2.62,2.62,0,0,1,91.87,41Z"/><path class="cls-28" d="M99.08,43.17V36.33h1.38V39h2.71V36.33h1.38v6.84h-1.38v-3h-2.71v3Z"/><path class="cls-28" d="M106.18,39.79a4.32,4.32,0,0,1,.31-1.75,3.33,3.33,0,0,1,.64-.94,2.72,2.72,0,0,1,.88-.62,3.79,3.79,0,0,1,1.48-.27,3.24,3.24,0,0,1,2.42.94,3.63,3.63,0,0,1,.91,2.61,3.54,3.54,0,0,1-.91,2.59,3.16,3.16,0,0,1-2.4.94,3.22,3.22,0,0,1-2.43-.93A3.55,3.55,0,0,1,106.18,39.79Zm1.42,0a2.56,2.56,0,0,0,.54,1.76,1.84,1.84,0,0,0,2.72,0,2.61,2.61,0,0,0,.53-1.78,2.55,2.55,0,0,0-.52-1.76,1.91,1.91,0,0,0-2.75,0A2.63,2.63,0,0,0,107.6,39.75Z"/><path class="cls-28" d="M114.37,43.17V36.33h2.22a7.92,7.92,0,0,1,1.64.1,1.84,1.84,0,0,1,1,.67,2.16,2.16,0,0,1,.39,1.33,2.13,2.13,0,0,1-.23,1.06,1.85,1.85,0,0,1-.58.68,2,2,0,0,1-.71.32,7.5,7.5,0,0,1-1.44.1h-.9v2.58Zm1.38-5.68v1.94h.76a3.59,3.59,0,0,0,1.09-.11A.85.85,0,0,0,118,39a.91.91,0,0,0,.16-.54.85.85,0,0,0-.22-.61.92.92,0,0,0-.56-.31,7,7,0,0,0-1,0Z"/><path class="cls-19" d="M142.1,105.67h-4.32v-8.2a.76.76,0,0,0-.76-.77.77.77,0,0,0-.77.77v8.2h-3.68V98.73a.76.76,0,0,0,0-.27,5,5,0,0,0,2,2.08.75.75,0,0,0,1-.28.77.77,0,0,0-.28-1,3.55,3.55,0,1,1,4.24-5.63,3.55,3.55,0,0,1-.84,5.69.77.77,0,0,0,.36,1.45.73.73,0,0,0,.35-.09,5.08,5.08,0,0,0-.06-9,4.16,4.16,0,0,0-.23-7.07.76.76,0,1,0-.76,1.32,2.63,2.63,0,0,1-1.27,4.91,2.62,2.62,0,0,1-1.25-5,.77.77,0,1,0-.71-1.36,4.13,4.13,0,0,0-.36,7.15,5.09,5.09,0,0,0-2.79,4.59,5,5,0,0,0,.54,2.19.78.78,0,0,0-.67-.42H130V78.16a5.17,5.17,0,0,0,.8-.67,6,6,0,0,0,1.78-4.29V65.3h1.34a.76.76,0,0,0,.76-.76V58a.76.76,0,0,0-.76-.76H130V51.52a.76.76,0,0,0-.76-.76H124.8a.76.76,0,0,0-.76.76.77.77,0,0,0,.76.77h3.66v5H82.13v-5h39.43a.77.77,0,0,0,.77-.77.76.76,0,0,0-.77-.76h-4.22V47.49h6.56a.76.76,0,0,0,.72-.49l5.32-14.16a.76.76,0,0,0-.08-.7.77.77,0,0,0-.63-.33H90.76a.76.76,0,0,0-.76.76.77.77,0,0,0,.76.77h37.36L123.37,46H87.22L82.47,33.34h4.22a.78.78,0,0,0,.77-.77.77.77,0,0,0-.77-.76H81.37a.76.76,0,0,0-.63.33.73.73,0,0,0-.09.7L86,47a.77.77,0,0,0,.72.49h6.56v3.27H81.37a.76.76,0,0,0-.77.76v5.75H76.68a.76.76,0,0,0-.76.76v6.51a.76.76,0,0,0,.76.76H78v7.9a6.09,6.09,0,0,0,2.58,5v6a.76.76,0,0,0,.77.77.72.72,0,0,0,.19,0,.58.58,0,0,0,.18,0h5.37a.77.77,0,1,0,0-1.53h-5V78.93a5.94,5.94,0,0,0,2,.34,6.05,6.05,0,0,0,5.3-3.12,6.07,6.07,0,0,0,10.61,0,6.06,6.06,0,0,0,10.6,0,6.06,6.06,0,0,0,10.6,0,6.08,6.08,0,0,0,5.31,3.12,5.93,5.93,0,0,0,2-.34v4.44h-5a.77.77,0,1,0,0,1.53h5v1.52h-5a.77.77,0,1,0,0,1.53h5v1.53h-5a.77.77,0,0,0-.77.76.78.78,0,0,0,.77.77h5v1.52h-5a.77.77,0,1,0,0,1.53h5V98H116.67V91.19a.77.77,0,0,0-.77-.77.76.76,0,0,0-.76.77v14.48h-9.08V82.36h9.08v5.49a.76.76,0,0,0,.76.76.77.77,0,0,0,.77-.76V81.59a.77.77,0,0,0-.77-.76H94.69a.76.76,0,0,0-.76.76V98H82.13v-3.9h5a.77.77,0,1,0,0-1.53h-5V91h5a.77.77,0,0,0,.77-.77.76.76,0,0,0-.77-.76h-5V88h5a.77.77,0,1,0,0-1.53H81.74a.58.58,0,0,0-.18,0,.72.72,0,0,0-.19,0,.76.76,0,0,0-.77.77V98H78.79a.74.74,0,0,0-.62.35,5.12,5.12,0,0,0,.49-2.23,5.05,5.05,0,0,0-2.8-4.48,4.14,4.14,0,0,0,1.87-3.51,4.18,4.18,0,0,0-2.09-3.56.76.76,0,1,0-.76,1.32A2.67,2.67,0,0,1,76.2,88.1a2.63,2.63,0,0,1-2.6,2.66,2.62,2.62,0,0,1-1.24-5,.77.77,0,0,0-.71-1.36,4.13,4.13,0,0,0-.36,7.15,5.08,5.08,0,0,0-.24,8.94.76.76,0,0,0,1-.28.77.77,0,0,0-.28-1,3.55,3.55,0,1,1,4.24-5.63,3.55,3.55,0,0,1-.84,5.69.77.77,0,0,0-.32,1,.76.76,0,0,0,.68.41.73.73,0,0,0,.35-.09,5.08,5.08,0,0,0,2.14-2.14.86.86,0,0,0,0,.23v6.94H74.34v-8.2a.77.77,0,1,0-1.53,0v8.2H68.5a.77.77,0,0,0-.77.77.76.76,0,0,0,.77.76h73.6a.76.76,0,0,0,.76-.76A.77.77,0,0,0,142.1,105.67ZM94.78,47.49h21v3.27h-21ZM77.45,58.8h55.69v5H77.45ZM88.63,73.2a4.54,4.54,0,1,1-9.08,0V65.3h9.08Zm16.67,4.54a4.54,4.54,0,0,1-4.54-4.53v-7.9h9.07v7.9A4.53,4.53,0,0,1,105.3,77.74Zm15.14-4.53a4.54,4.54,0,0,1-9.08,0v-7.9h9.08V73.2Zm1.53,0V65.3H131v7.9a4.51,4.51,0,0,1-1.33,3.21,4.19,4.19,0,0,1-.88.69A4.54,4.54,0,0,1,122,73.2ZM79.55,105.67V99.49H93.93v6.18H79.55Zm15.91-6.94V82.36h9.07v23.31H95.46Zm33.77,6.94H116.67V99.49H131v6.18ZM94.69,77.74a4.53,4.53,0,0,1-4.53-4.53v-7.9h9.07v7.9A4.53,4.53,0,0,1,94.69,77.74Zm0,0a4.53,4.53,0,0,1-4.53-4.53v-7.9h9.07v7.9A4.53,4.53,0,0,1,94.69,77.74Zm25.75-4.53a4.54,4.54,0,0,1-9.08,0v-7.9h9.08V73.2ZM94.69,77.74a4.53,4.53,0,0,1-4.53-4.53v-7.9h9.07v7.9A4.53,4.53,0,0,1,94.69,77.74Zm25.75-4.53a4.54,4.54,0,0,1-9.08,0v-7.9h9.08V73.2Z"/><path class="cls-19" d="M102.41,90.76a.76.76,0,0,0-.76.76v3.14a.77.77,0,1,0,1.53,0V91.52A.76.76,0,0,0,102.41,90.76Z"/><path class="cls-19" d="M107.41,91.52v3.14a.77.77,0,0,0,.77.77.76.76,0,0,0,.76-.77V91.52a.76.76,0,0,0-.76-.76A.77.77,0,0,0,107.41,91.52Z"/><path class="cls-19" d="M94.71,42.13a1.5,1.5,0,0,1-1-.32,1.61,1.61,0,0,1-.49-1L91.87,41a2.62,2.62,0,0,0,.83,1.74,3,3,0,0,0,2,.6A3.84,3.84,0,0,0,96.19,43a2,2,0,0,0,.92-.76,2,2,0,0,0,.33-1.1,2,2,0,0,0-.28-1.09,1.88,1.88,0,0,0-.75-.7,6.75,6.75,0,0,0-1.49-.49,3.47,3.47,0,0,1-1.27-.46.51.51,0,0,1-.21-.41.5.5,0,0,1,.22-.43,1.61,1.61,0,0,1,.94-.24,1.38,1.38,0,0,1,.88.23,1.17,1.17,0,0,1,.38.76l1.38-.07a2,2,0,0,0-.68-1.5,2.88,2.88,0,0,0-1.94-.57,3.4,3.4,0,0,0-1.35.24,1.84,1.84,0,0,0-.85.69,1.76,1.76,0,0,0-.3,1,1.79,1.79,0,0,0,.63,1.38,3.82,3.82,0,0,0,1.56.68c.58.14.94.24,1.11.29a1.21,1.21,0,0,1,.49.3.59.59,0,0,1,.15.41.83.83,0,0,1-.34.66A1.54,1.54,0,0,1,94.71,42.13Z"/><polygon class="cls-19" points="99.08 36.33 99.08 43.17 100.46 43.17 100.46 40.18 103.17 40.18 103.17 43.17 104.55 43.17 104.55 36.33 103.17 36.33 103.17 39.02 100.46 39.02 100.46 36.33 99.08 36.33"/><path class="cls-19" d="M111.91,42.35a3.54,3.54,0,0,0,.91-2.59,3.63,3.63,0,0,0-.91-2.61,3.24,3.24,0,0,0-2.42-.94,3.79,3.79,0,0,0-1.48.27,2.72,2.72,0,0,0-.88.62,3.33,3.33,0,0,0-.64.94,4.32,4.32,0,0,0-.31,1.75,3.55,3.55,0,0,0,.9,2.57,3.22,3.22,0,0,0,2.43.93A3.16,3.16,0,0,0,111.91,42.35Zm-3.77-.84a2.56,2.56,0,0,1-.54-1.76,2.63,2.63,0,0,1,.52-1.77,1.91,1.91,0,0,1,2.75,0,2.55,2.55,0,0,1,.52,1.76,2.61,2.61,0,0,1-.53,1.78,1.84,1.84,0,0,1-2.72,0Z"/><path class="cls-19" d="M116.65,40.59a7.5,7.5,0,0,0,1.44-.1,2,2,0,0,0,.71-.32,1.85,1.85,0,0,0,.58-.68,2.13,2.13,0,0,0,.23-1.06,2.16,2.16,0,0,0-.39-1.33,1.84,1.84,0,0,0-1-.67,7.92,7.92,0,0,0-1.64-.1h-2.22v6.84h1.38V40.59Zm-.9-3.1h.67a7,7,0,0,1,1,0,.92.92,0,0,1,.56.31.85.85,0,0,1,.22.61A.91.91,0,0,1,118,39a.85.85,0,0,1-.43.33,3.59,3.59,0,0,1-1.09.11h-.76Z"/><path class="cls-29" d="M94.69,77.74a4.53,4.53,0,0,1-4.53-4.53v-7.9h9.07v7.9A4.53,4.53,0,0,1,94.69,77.74Z"/><path class="cls-30" d="M120.44,73.21a4.54,4.54,0,0,1-9.08,0v-7.9h9.08V73.2Z"/></g></g></g></svg>