<svg xmlns="http://www.w3.org/2000/svg" xmlns:xlink="http://www.w3.org/1999/xlink" viewBox="0 0 209.61 116.3"><defs><style>.cls-1{opacity:0.26;}.cls-2{opacity:0.2;}.cls-3{fill:url(#linear-gradient);}.cls-4{fill:url(#linear-gradient-2);}.cls-5{fill:url(#linear-gradient-3);}.cls-6{fill:url(#linear-gradient-4);}.cls-7{fill:url(#linear-gradient-5);}.cls-8{fill:url(#linear-gradient-6);}.cls-9{fill:url(#linear-gradient-7);}.cls-10{fill:url(#linear-gradient-8);}.cls-11{fill:url(#linear-gradient-9);}.cls-12{fill:url(#linear-gradient-10);}.cls-13{fill:url(#linear-gradient-11);}.cls-14{fill:url(#linear-gradient-12);}.cls-15{fill:url(#linear-gradient-13);}.cls-16{fill:url(#linear-gradient-14);}.cls-17{fill:url(#linear-gradient-15);}.cls-18{fill:url(#linear-gradient-16);}.cls-19{fill:#007cf9;}.cls-20{fill:url(#linear-gradient-17);}.cls-21{fill:url(#linear-gradient-18);}.cls-22{fill:url(#linear-gradient-19);}.cls-23{fill:#fff;}.cls-24{fill:url(#linear-gradient-20);}.cls-25{fill:url(#linear-gradient-21);}.cls-26{fill:url(#linear-gradient-22);}.cls-27{fill:url(#linear-gradient-23);}.cls-28{fill:url(#linear-gradient-24);}.cls-29{opacity:0.55;}.cls-30{opacity:0.5;}.cls-31{fill:#94e3f9;}.cls-32{opacity:0.33;}.cls-33{fill:url(#linear-gradient-25);}.cls-34{fill:url(#linear-gradient-26);}.cls-35{fill:url(#linear-gradient-27);}.cls-36{fill:url(#linear-gradient-28);}.cls-37{fill:url(#linear-gradient-29);}.cls-38{fill:url(#linear-gradient-30);}.cls-39{fill:url(#linear-gradient-31);}.cls-40{fill:url(#linear-gradient-32);}.cls-41{fill:url(#linear-gradient-33);}.cls-42{fill:url(#linear-gradient-34);}.cls-43{fill:#006eff;}</style><linearGradient id="linear-gradient" x1="19.75" y1="70.75" x2="192.81" y2="70.75" gradientUnits="userSpaceOnUse"><stop offset="0" stop-color="#00ffc6"/><stop offset="1" stop-color="#006eff"/></linearGradient><linearGradient id="linear-gradient-2" x1="45.34" y1="84.53" x2="169.44" y2="84.53" xlink:href="#linear-gradient"/><linearGradient id="linear-gradient-3" x1="191.72" y1="82.95" x2="201.45" y2="82.95" xlink:href="#linear-gradient"/><linearGradient id="linear-gradient-4" x1="118.55" y1="22.27" x2="133.54" y2="22.27" gradientTransform="translate(118.66 -105.52) rotate(76.67)" xlink:href="#linear-gradient"/><linearGradient id="linear-gradient-5" x1="51.19" y1="40.58" x2="57.61" y2="40.58" xlink:href="#linear-gradient"/><linearGradient id="linear-gradient-6" x1="152.3" y1="34.7" x2="158.72" y2="34.7" xlink:href="#linear-gradient"/><linearGradient id="linear-gradient-7" x1="81.51" y1="12.98" x2="87.93" y2="12.98" xlink:href="#linear-gradient"/><linearGradient id="linear-gradient-8" x1="193.51" y1="94.72" x2="196.15" y2="94.72" xlink:href="#linear-gradient"/><linearGradient id="linear-gradient-9" x1="153.01" y1="11.99" x2="154.99" y2="11.99" xlink:href="#linear-gradient"/><linearGradient id="linear-gradient-10" x1="54.39" y1="16.92" x2="56.96" y2="16.92" xlink:href="#linear-gradient"/><linearGradient id="linear-gradient-11" x1="0" y1="45.68" x2="3.43" y2="45.68" xlink:href="#linear-gradient"/><linearGradient id="linear-gradient-12" x1="206.18" y1="58.23" x2="209.61" y2="58.23" xlink:href="#linear-gradient"/><linearGradient id="linear-gradient-13" x1="21.97" y1="38.75" x2="36.49" y2="38.75" xlink:href="#linear-gradient"/><linearGradient id="linear-gradient-14" x1="6.14" y1="91.71" x2="9.56" y2="91.71" xlink:href="#linear-gradient"/><linearGradient id="linear-gradient-15" x1="184.68" y1="40.58" x2="198.76" y2="40.58" xlink:href="#linear-gradient"/><linearGradient id="linear-gradient-16" x1="0.93" y1="72.39" x2="14.77" y2="72.39" xlink:href="#linear-gradient"/><linearGradient id="linear-gradient-17" x1="133.93" y1="0.08" x2="112.11" y2="20.88" xlink:href="#linear-gradient"/><linearGradient id="linear-gradient-18" x1="158.8" y1="-40.13" x2="96.54" y2="26.43" xlink:href="#linear-gradient"/><linearGradient id="linear-gradient-19" x1="148.67" y1="-42.72" x2="89.84" y2="20.17" xlink:href="#linear-gradient"/><linearGradient id="linear-gradient-20" x1="160.52" y1="-9.6" x2="101.7" y2="53.28" xlink:href="#linear-gradient"/><linearGradient id="linear-gradient-21" x1="146.54" y1="-36.72" x2="96.51" y2="16.76" xlink:href="#linear-gradient"/><linearGradient id="linear-gradient-22" x1="214.13" y1="-36.72" x2="164.1" y2="16.76" xlink:href="#linear-gradient"/><linearGradient id="linear-gradient-23" x1="196.57" y1="24.12" x2="137.74" y2="87" xlink:href="#linear-gradient"/><linearGradient id="linear-gradient-24" x1="111.41" y1="63.26" x2="84.7" y2="86.25" gradientUnits="userSpaceOnUse"><stop offset="0" stop-color="#7cd1ff"/><stop offset="0.99" stop-color="#0cc2ed"/></linearGradient><linearGradient id="linear-gradient-25" x1="109" y1="46.34" x2="95.14" y2="71.02" xlink:href="#linear-gradient"/><linearGradient id="linear-gradient-26" x1="135.75" y1="33.38" x2="109.74" y2="55.77" xlink:href="#linear-gradient-24"/><linearGradient id="linear-gradient-27" x1="133.02" y1="17.72" x2="119.77" y2="41.3" xlink:href="#linear-gradient"/><linearGradient id="linear-gradient-28" x1="189.11" y1="17.14" x2="130.28" y2="80.02" xlink:href="#linear-gradient"/><linearGradient id="linear-gradient-29" x1="162.29" y1="2.19" x2="103.46" y2="65.08" xlink:href="#linear-gradient"/><linearGradient id="linear-gradient-30" x1="190.64" y1="18.57" x2="131.82" y2="81.46" xlink:href="#linear-gradient"/><linearGradient id="linear-gradient-31" x1="109.06" y1="-21.66" x2="84.72" y2="13.84" xlink:href="#linear-gradient-24"/><linearGradient id="linear-gradient-32" x1="121.24" y1="-13.31" x2="96.9" y2="22.19" xlink:href="#linear-gradient-24"/><linearGradient id="linear-gradient-33" x1="133.42" y1="-4.96" x2="109.08" y2="30.54" xlink:href="#linear-gradient-24"/><linearGradient id="linear-gradient-34" x1="145.77" y1="3.51" x2="121.43" y2="39.01" xlink:href="#linear-gradient-24"/></defs><title>Asset 1</title><g id="Layer_2" data-name="Layer 2"><g id="Store"><g class="cls-1"><g class="cls-2"><path class="cls-3" d="M192.81,115.55a85.2,85.2,0,0,0-7.35-34.71A26.93,26.93,0,0,0,153.2,43.45a85,85,0,0,0-45.81-13.32q-3.15,0-6.24.23a22,22,0,0,0-33.79,9.72A86,86,0,0,0,49.55,52.71a24.12,24.12,0,0,0-5.41-.61A24.39,24.39,0,0,0,25.28,92,85.43,85.43,0,0,0,22,115.55Z"/></g><g class="cls-2"><path class="cls-4" d="M169.44,115.55a62.05,62.05,0,0,0-124.1,0Z"/></g><g class="cls-2"><path class="cls-5" d="M201.45,83a4.87,4.87,0,1,1-4.86-4.86A4.86,4.86,0,0,1,201.45,83Z"/></g><g class="cls-2"><circle class="cls-6" cx="126.05" cy="22.27" r="7.49" transform="translate(75.33 139.79) rotate(-76.67)"/></g><g class="cls-2"><path class="cls-7" d="M57.61,40.58a3.21,3.21,0,1,1-3.21-3.21A3.21,3.21,0,0,1,57.61,40.58Z"/></g><g class="cls-2"><circle class="cls-8" cx="155.51" cy="34.7" r="3.21"/></g><g class="cls-2"><path class="cls-9" d="M87.93,13a3.21,3.21,0,1,1-3.21-3.21A3.21,3.21,0,0,1,87.93,13Z"/></g><g class="cls-2"><path class="cls-10" d="M196.15,94.72a1.32,1.32,0,1,1-1.32-1.32A1.32,1.32,0,0,1,196.15,94.72Z"/></g><g class="cls-2"><path class="cls-11" d="M155,12a1,1,0,1,1-1-1A1,1,0,0,1,155,12Z"/></g><g class="cls-2"><path class="cls-12" d="M57,16.92a1.29,1.29,0,1,1-2.57,0,1.29,1.29,0,0,1,2.57,0Z"/></g><g class="cls-2"><path class="cls-13" d="M3.43,45.68A1.72,1.72,0,1,1,1.71,44,1.71,1.71,0,0,1,3.43,45.68Z"/></g><g class="cls-2"><circle class="cls-14" cx="207.89" cy="58.23" r="1.71"/></g><g class="cls-2"><circle class="cls-15" cx="29.23" cy="38.75" r="7.26"/></g><g class="cls-2"><path class="cls-16" d="M9.56,91.71A1.71,1.71,0,1,1,7.85,90,1.71,1.71,0,0,1,9.56,91.71Z"/></g><g class="cls-2"><path class="cls-17" d="M198.76,40.58a7,7,0,1,1-7-7A7,7,0,0,1,198.76,40.58Z"/></g><g class="cls-2"><path class="cls-18" d="M14.77,72.39a6.92,6.92,0,1,1-6.92-6.92A6.92,6.92,0,0,1,14.77,72.39Z"/></g></g><path class="cls-19" d="M187.22,37.4h-51.3a.75.75,0,0,1,0-1.5h51.3a.75.75,0,0,1,0,1.5Z"/><path class="cls-19" d="M45.1,47.43H13.32a.75.75,0,0,1,0-1.5H45.1a.75.75,0,0,1,0,1.5Z"/><path class="cls-19" d="M56.23,87.53H24.45a.75.75,0,0,1,0-1.5H56.23a.75.75,0,0,1,0,1.5Z"/><path class="cls-19" d="M158.25,63.29H154a.75.75,0,0,1,0-1.5h4.28a.75.75,0,0,1,0,1.5Z"/><path class="cls-19" d="M156.11,65.43a.76.76,0,0,1-.75-.75V60.4a.75.75,0,0,1,1.5,0v4.28A.75.75,0,0,1,156.11,65.43Z"/><path class="cls-19" d="M156.08,29.8H151.8a.75.75,0,0,1,0-1.5h4.28a.75.75,0,0,1,0,1.5Z"/><path class="cls-19" d="M153.94,31.94a.75.75,0,0,1-.75-.75V26.91a.75.75,0,1,1,1.5,0v4.28A.76.76,0,0,1,153.94,31.94Z"/><path class="cls-19" d="M50.53,15.52H46.26a.75.75,0,0,1,0-1.5h4.27a.75.75,0,0,1,0,1.5Z"/><path class="cls-19" d="M48.39,17.66a.76.76,0,0,1-.75-.75V12.64a.75.75,0,0,1,1.5,0v4.27A.75.75,0,0,1,48.39,17.66Z"/><path class="cls-19" d="M161.27,94.91a.74.74,0,0,1-.53-.22.75.75,0,0,1,0-1.06l3-3a.75.75,0,0,1,1.06,1.06l-3,3A.71.71,0,0,1,161.27,94.91Z"/><path class="cls-19" d="M164.3,94.91a.71.71,0,0,1-.53-.22l-3-3a.75.75,0,0,1,1.06-1.06l3,3a.75.75,0,0,1,0,1.06A.74.74,0,0,1,164.3,94.91Z"/><path class="cls-19" d="M50.88,48.94a.74.74,0,0,1-.53-.22.75.75,0,0,1,0-1.06l3-3a.75.75,0,0,1,1.06,1.06l-3,3A.74.74,0,0,1,50.88,48.94Z"/><path class="cls-19" d="M53.9,48.94a.74.74,0,0,1-.53-.22l-3-3a.75.75,0,1,1,1.06-1.06l3,3a.75.75,0,0,1,0,1.06A.73.73,0,0,1,53.9,48.94Z"/><polygon class="cls-19" points="17.68 32.17 16.5 32.85 15.33 32.17 15.33 30.81 16.5 30.13 17.68 30.81 17.68 32.17"/><polygon class="cls-19" points="184.2 61.9 183.02 62.58 181.84 61.9 181.84 60.54 183.02 59.85 184.2 60.54 184.2 61.9"/><polygon class="cls-19" points="51.87 94.56 50.13 95.57 48.39 94.56 48.39 92.56 50.13 91.56 51.87 92.56 51.87 94.56"/><polygon class="cls-19" points="23.7 80.31 21.97 81.31 20.23 80.31 20.23 78.31 21.97 77.31 23.7 78.31 23.7 80.31"/><path class="cls-19" d="M199.36,51.14H153.94a.75.75,0,0,1,0-1.5h45.42a.75.75,0,0,1,0,1.5Z"/><path class="cls-19" d="M199,116.3H15.75a.75.75,0,0,1,0-1.5H199a.75.75,0,0,1,0,1.5Z"/><path class="cls-19" d="M204.41,116.3H201.7a.75.75,0,0,1,0-1.5h2.71a.75.75,0,0,1,0,1.5Z"/><path class="cls-19" d="M12.55,116.3H8a.75.75,0,0,1,0-1.5h4.6a.75.75,0,0,1,0,1.5Z"/><rect class="cls-20" x="63.99" y="29.84" width="73.53" height="3.74"/><rect class="cls-19" x="67.75" y="26.81" width="66.83" height="3.03"/><polygon class="cls-21" points="135.32 30.39 133.71 30.39 133.71 24.45 137.53 21.18 137.53 18.95 64.17 18.95 64.17 21.18 67.99 24.45 67.99 30.39 66.38 30.39 66.38 25.2 62.56 21.92 62.56 17.34 139.14 17.34 139.14 21.92 135.32 25.2 135.32 30.39"/><rect class="cls-22" x="72.61" y="23.69" width="26.44" height="1.52"/><rect class="cls-23" x="66.99" y="57.74" width="67.59" height="54.85"/><rect class="cls-19" x="66.99" y="104.54" width="67.59" height="8.05"/><polygon class="cls-23" points="65.55 62.95 65.55 66.17 69.16 69.27 69.16 76.42 132.78 76.42 132.78 69.27 136.38 66.17 136.38 62.95 65.55 62.95"/><path class="cls-23" d="M140,108H62.11a.15.15,0,0,0-.15.15v6h78.19v-6A.15.15,0,0,0,140,108Z"/><rect class="cls-23" x="61.27" y="63.68" width="79.12" height="8.41" rx="0.14"/><rect class="cls-24" x="66.23" y="72.76" width="1.52" height="35.25"/><rect class="cls-25" x="66.23" y="33.44" width="1.52" height="29.76"/><rect class="cls-26" x="133.81" y="33.44" width="1.52" height="29.76"/><rect class="cls-27" x="133.81" y="72.76" width="1.52" height="35.25"/><rect class="cls-28" x="73.98" y="75.34" width="28.74" height="15.54"/><g class="cls-29"><g class="cls-30"><polygon class="cls-23" points="82.45 75.34 73.98 83.81 73.98 90.88 78.06 90.88 93.6 75.34 82.45 75.34"/></g><g class="cls-30"><polygon class="cls-23" points="100.36 75.34 96.98 75.34 81.44 90.88 84.83 90.88 100.36 75.34"/></g></g><rect class="cls-31" x="112.04" y="75.34" width="15.35" height="26.46"/><g class="cls-32"><g class="cls-30"><polygon class="cls-23" points="112.04 93.56 127.39 78.21 127.39 75.34 118.1 75.34 112.04 81.4 112.04 93.56"/></g><g class="cls-30"><polygon class="cls-23" points="127.39 84.78 127.39 80.41 112.04 95.75 112.04 100.13 127.39 84.78"/></g></g><path class="cls-33" d="M103.48,91.64H73.22V74.58h30.26ZM74.74,90.12H102v-14H74.74Z"/><rect class="cls-34" x="98.92" y="45.58" width="28.74" height="14.27"/><g class="cls-29"><g class="cls-30"><polygon class="cls-23" points="107.39 45.07 98.92 53.13 98.92 59.85 103 59.85 118.54 45.07 107.39 45.07"/></g><g class="cls-30"><polygon class="cls-23" points="125.31 45.07 121.92 45.07 106.39 59.85 109.77 59.85 125.31 45.07"/></g></g><path class="cls-35" d="M128.42,60.61H98.16V45.07h30.26ZM99.68,59.22H126.9V46.46H99.68Z"/><path class="cls-19" d="M128.15,102.56H111.28v-28h16.87ZM112.8,101h13.83V76.1H112.8Z"/><path class="cls-36" d="M141.15,114.19h-1.52v-5.42H63v5.42H61.44v-6a.91.91,0,0,1,.91-.91h77.89a.91.91,0,0,1,.91.91Z"/><path class="cls-37" d="M140.25,72.85H61.41a.9.9,0,0,1-.9-.9V63.82a.9.9,0,0,1,.9-.9h78.84a.9.9,0,0,1,.9.9V72A.9.9,0,0,1,140.25,72.85ZM62,71.33h77.6V64.44H62Z"/><rect class="cls-38" x="57.64" y="113.43" width="87.09" height="1.52"/><path class="cls-39" d="M65.07,33.08v4.39a4.48,4.48,0,1,0,9,0V33.08Z"/><path class="cls-23" d="M74,33.08v4.39a4.48,4.48,0,1,0,9,0V33.08Z"/><path class="cls-40" d="M83,33.08v4.39a4.48,4.48,0,1,0,9,0V33.08Z"/><path class="cls-23" d="M91.92,33.08v4.39a4.48,4.48,0,1,0,9,0V33.08Z"/><path class="cls-41" d="M100.88,33.08v4.39a4.48,4.48,0,1,0,9,0V33.08Z"/><path class="cls-23" d="M109.83,33.08v4.39a4.48,4.48,0,1,0,9,0V33.08Z"/><path class="cls-42" d="M119,33.08v4.39a4.48,4.48,0,1,0,8.95,0V33.08Z"/><path class="cls-23" d="M127.82,33.08v4.39a4.48,4.48,0,1,0,9,0V33.08Z"/><path class="cls-19" d="M69.28,42.67A5.24,5.24,0,0,1,64,37.44V33.05h1.52v4.39a3.72,3.72,0,0,0,7.44,0V33.05h1.52v4.39A5.24,5.24,0,0,1,69.28,42.67Z"/><path class="cls-19" d="M78.23,42.67A5.23,5.23,0,0,1,73,37.44V33.05h1.52v4.39a3.72,3.72,0,0,0,7.43,0V33.05h1.52v4.39A5.24,5.24,0,0,1,78.23,42.67Z"/><path class="cls-19" d="M87.18,42.67A5.23,5.23,0,0,1,82,37.44V33.05h1.52v4.39a3.72,3.72,0,0,0,7.43,0V33.05h1.52v4.39A5.24,5.24,0,0,1,87.18,42.67Z"/><path class="cls-19" d="M96.14,42.67a5.24,5.24,0,0,1-5.24-5.23V33.05h1.52v4.39a3.72,3.72,0,0,0,7.43,0V33.05h1.52v4.39A5.23,5.23,0,0,1,96.14,42.67Z"/><path class="cls-19" d="M105.09,42.67a5.24,5.24,0,0,1-5.24-5.23V33.05h1.52v4.39a3.72,3.72,0,0,0,7.43,0V33.05h1.53v4.39A5.24,5.24,0,0,1,105.09,42.67Z"/><path class="cls-19" d="M114,42.67a5.24,5.24,0,0,1-5.24-5.23V33.05h1.53v4.39a3.72,3.72,0,0,0,7.43,0V33.05h1.52v4.39A5.24,5.24,0,0,1,114,42.67Z"/><path class="cls-19" d="M123.25,42.67A5.24,5.24,0,0,1,118,37.44V33.05h1.52v4.39a3.72,3.72,0,0,0,7.44,0V33.05h1.52v4.39A5.24,5.24,0,0,1,123.25,42.67Z"/><path class="cls-19" d="M132,42.67a5.24,5.24,0,0,1-5.24-5.23V33.05h1.52v4.39a3.72,3.72,0,0,0,7.44,0V33.05h1.52v4.39A5.24,5.24,0,0,1,132,42.67Z"/><path class="cls-43" d="M123.89,3.64h-4.27a.75.75,0,0,1,0-1.5h4.27a.75.75,0,0,1,0,1.5Z"/><path class="cls-43" d="M121.76,5.77A.74.74,0,0,1,121,5V.75a.75.75,0,0,1,1.5,0V5A.75.75,0,0,1,121.76,5.77Z"/><path class="cls-43" d="M105.82,3.64h-30a.75.75,0,0,1,0-1.5h30a.75.75,0,0,1,0,1.5Z"/><path class="cls-43" d="M116,3.64h-4.81a.75.75,0,0,1,0-1.5H116a.75.75,0,0,1,0,1.5Z"/></g></g></svg>